<?xml version="1.0" standalone="no"?>
<!DOCTYPE svg PUBLIC "-//W3C//DTD SVG 20010904//EN"
 "http://www.w3.org/TR/2001/REC-SVG-20010904/DTD/svg10.dtd">
<svg version="1.0" xmlns="http://www.w3.org/2000/svg"
 width="341.000000pt" height="341.000000pt" viewBox="0 0 341.000000 341.000000"
 preserveAspectRatio="xMidYMid meet">
<metadata>
Created by potrace 1.11, written by Peter Selinger 2001-2013
</metadata>
<g transform="translate(0.000000,341.000000) scale(0.100000,-0.100000)"
fill="#000000" stroke="none">
<path d="M1680 3319 c-25 -4 -65 -10 -90 -14 -140 -20 -347 -86 -506 -160
-619 -289 -994 -805 -1072 -1475 -8 -75 -8 -350 0 -430 29 -265 140 -505 322
-699 155 -163 468 -333 721 -390 126 -29 163 -35 305 -50 72 -8 428 -6 480 3
14 2 50 7 80 11 30 4 57 8 60 10 3 2 26 6 50 10 227 31 562 162 762 297 113
77 131 92 226 188 236 239 379 535 387 802 7 244 -93 466 -271 598 l-61 45 -2
60 c-9 346 -148 658 -401 903 -129 125 -330 226 -542 273 -99 22 -360 33 -448
18z m405 -172 c214 -48 364 -128 506 -270 178 -178 283 -404 314 -674 8 -71
11 -70 -72 -47 -32 8 -67 17 -78 20 -19 4 -327 57 -410 70 -22 3 -58 9 -80 13
l-40 7 -1 134 c-1 196 -20 244 -97 242 -37 -1 -53 -15 -76 -67 -29 -66 -49
-140 -67 -246 l-6 -37 -72 1 c-115 0 -220 -18 -297 -51 -70 -31 -91 -70 -63
-123 20 -40 53 -45 132 -21 86 27 164 37 262 33 l25 -1 -1 -188 c-1 -168 -4
-197 -28 -291 -83 -323 -217 -564 -343 -617 -45 -19 -72 -17 -108 7 -38 26
-54 61 -64 133 -9 66 -7 90 20 270 12 78 21 168 21 201 -1 145 -118 314 -267
386 -88 42 -221 33 -323 -22 -56 -30 -146 -119 -189 -187 -118 -184 -179 -481
-133 -652 57 -214 257 -308 452 -212 62 31 152 108 219 189 35 41 35 41 37 15
3 -40 31 -131 49 -161 28 -45 77 -92 118 -114 62 -33 172 -31 245 5 110 55
228 197 302 365 l32 73 21 -63 c49 -146 140 -263 244 -314 51 -26 66 -28 166
-28 102 0 115 3 175 31 249 118 412 427 455 864 2 19 4 37 4 39 2 10 55 -47
79 -84 76 -116 96 -185 95 -330 -1 -171 -52 -321 -170 -500 -90 -136 -208
-264 -317 -344 -48 -36 -202 -131 -211 -131 -2 0 -32 -13 -67 -30 -116 -54
-328 -122 -453 -145 -190 -34 -288 -42 -479 -39 -219 3 -230 4 -455 50 -121
25 -359 128 -472 205 -183 124 -327 313 -398 524 -61 182 -76 475 -37 703 3
17 8 47 12 65 22 131 79 302 142 427 167 331 425 578 787 755 186 91 392 155
555 173 110 13 325 7 405 -11z m180 -1051 c28 -3 61 -8 75 -10 14 -3 68 -12
120 -20 52 -9 106 -18 120 -21 14 -3 52 -10 85 -16 33 -6 92 -20 130 -31 39
-11 81 -22 94 -25 24 -6 24 -6 18 -107 -21 -334 -155 -644 -322 -742 -52 -30
-72 -36 -148 -41 -131 -10 -222 86 -276 293 -12 46 -18 104 -26 274 -5 101 -2
133 25 275 36 183 37 188 47 182 5 -3 31 -7 58 -11z m-1137 -212 c65 -27 141
-115 164 -188 16 -54 16 -61 3 -93 -10 -24 -23 -34 -53 -42 -70 -19 -95 -74
-61 -130 23 -38 21 -43 -57 -147 -132 -176 -261 -243 -350 -182 -72 49 -96
183 -64 348 61 309 249 505 418 434z"/>
</g>
</svg>
